<svg width="27" height="27" viewBox="0 0 27 27" fill="none" xmlns="http://www.w3.org/2000/svg">
<path d="M8.80312 23.625H5.625V10.575L3.57187 5.625H1.125V3.375H5.09063L6.94688 7.875H25.3969L21.375 15.7781C22.3312 15.9281 23.133 16.3687 23.7803 17.1C24.4268 17.8313 24.75 18.6938 24.75 19.6875C24.75 20.775 24.3705 21.7031 23.6115 22.4719C22.8518 23.2406 21.9281 23.625 20.8406 23.625C19.7344 23.625 18.8018 23.2406 18.0427 22.4719C17.283 21.7031 16.9031 20.775 16.9031 19.6875C16.9031 19.3125 16.95 18.9656 17.0437 18.6469C17.1375 18.3281 17.2687 18.0188 17.4375 17.7188L13.7531 17.3812L8.80312 23.625ZM18.9563 15.6094L21.7406 10.125L7.875 10.1531L9.81563 14.7656L18.9563 15.6094ZM7.875 15.4125V21.3469L11.2219 17.1562L8.49375 16.9031L7.875 15.4125ZM20.8125 21.375C21.3 21.375 21.7031 21.2108 22.0219 20.8822C22.3406 20.5545 22.5 20.1562 22.5 19.6875C22.5 19.2 22.3406 18.7969 22.0219 18.4781C21.7031 18.1594 21.3 18 20.8125 18C20.3438 18 19.9455 18.1594 19.6178 18.4781C19.2892 18.7969 19.125 19.2 19.125 19.6875C19.125 20.1562 19.2892 20.5545 19.6178 20.8822C19.9455 21.2108 20.3438 21.375 20.8125 21.375ZM18.9563 15.6094L9.81563 14.7656L18.9563 15.6094Z" fill="white"/>
</svg>
