<svg width="162" height="33" viewBox="0 0 162 33" fill="none" xmlns="http://www.w3.org/2000/svg">
<path d="M21.8124 16.6015C21.8124 13.7453 19.4886 11.4214 16.6323 11.4214C13.776 11.4214 11.4521 13.7453 11.4521 16.6015C11.4521 19.4578 13.776 21.7817 16.6323 21.7817C19.4886 21.7817 21.8124 19.4578 21.8124 16.6015ZM16.6324 17.5157C16.1283 17.5157 15.7182 17.1056 15.7182 16.6015C15.7182 16.0975 16.1283 15.6874 16.6324 15.6874C17.1364 15.6874 17.5465 16.0975 17.5465 16.6015C17.5465 17.1056 17.1364 17.5157 16.6324 17.5157Z" fill="#2C7B98"/>
<path d="M14.6826 20.0489C15.2585 20.3758 15.9241 20.5628 16.6324 20.5628C17.3406 20.5628 18.0062 20.3758 18.5821 20.0489M18.0876 18.1595C18.6552 18.4074 19.1569 18.7963 19.5374 19.2919C20.1925 18.585 20.5936 17.6393 20.5936 16.6015C20.5936 14.4172 18.8165 12.6402 16.6324 12.6402C14.448 12.6402 12.6711 14.4174 12.6711 16.6015C12.6711 17.6393 13.0724 18.5847 13.7275 19.2917C14.108 18.7964 14.6097 18.4072 15.1771 18.1595C14.7603 17.7699 14.4994 17.2157 14.4994 16.6015C14.4994 15.4254 15.4562 14.4686 16.6324 14.4686M21.8124 16.6015C21.8124 13.7453 19.4886 11.4214 16.6323 11.4214C13.776 11.4214 11.4521 13.7453 11.4521 16.6015C11.4521 19.4578 13.776 21.7817 16.6323 21.7817C19.4886 21.7817 21.8124 19.4578 21.8124 16.6015ZM16.6324 17.5157C16.1283 17.5157 15.7182 17.1056 15.7182 16.6015C15.7182 16.0975 16.1283 15.6874 16.6324 15.6874C17.1364 15.6874 17.5465 16.0975 17.5465 16.6015C17.5465 17.1056 17.1364 17.5157 16.6324 17.5157Z" stroke="#2C7B98" stroke-width="1.5"/>
<path d="M25.1642 16.6015C25.1642 11.8969 21.3368 8.06982 16.6325 8.06982C11.9282 8.06982 8.10083 11.8972 8.10083 16.6015C8.10083 21.3058 11.9282 25.1332 16.6325 25.1332C21.3368 25.1332 25.1642 21.3058 25.1642 16.6015ZM9.31885 16.6015C9.31885 12.5691 12.5995 9.2884 16.632 9.2884C20.6644 9.2884 23.9451 12.5691 23.9451 16.6015C23.9451 20.634 20.6644 23.9147 16.632 23.9147C12.5995 23.9147 9.31885 20.634 9.31885 16.6015Z" fill="#2C7B98" stroke="#2C7B98" stroke-width="1.5"/>
<path d="M4.66407 10.3952C4.76006 10.4507 4.86475 10.477 4.96813 10.477C5.17882 10.477 5.38363 10.3678 5.49637 10.1721C7.4335 6.81696 10.8269 4.49821 14.641 3.89756C14.9492 4.69724 15.7256 5.26596 16.6323 5.26596C17.8085 5.26596 18.7653 4.30916 18.7653 3.13298C18.7653 1.95681 17.8085 1 16.6323 1C15.612 1 14.7566 1.72023 14.5478 2.67876C12.5341 2.9813 10.5841 3.72678 8.88454 4.84724C7.06626 6.04587 5.52964 7.67626 4.44072 9.56224C4.27248 9.8539 4.37238 10.2265 4.66382 10.3947L4.66407 10.3952ZM16.6325 2.21896C17.1366 2.21896 17.5467 2.62902 17.5467 3.13309C17.5467 3.63716 17.1366 4.04722 16.6325 4.04722C16.1285 4.04722 15.7184 3.63716 15.7184 3.13309C15.7184 2.62902 16.1285 2.21896 16.6325 2.21896Z" fill="#2C7B98" stroke="#2C7B98" stroke-width="1.5"/>
<path d="M10.2029 27.7375C6.84755 25.8004 4.52847 22.407 3.92893 18.5929C4.72839 18.2849 5.29734 17.5083 5.29734 16.6016C5.29734 15.4254 4.34053 14.4686 3.16435 14.4686C1.98818 14.4686 1.03137 15.4254 1.03137 16.6016C1.03137 17.6219 1.7516 18.4773 2.71013 18.6858C3.01267 20.6996 3.75815 22.6495 4.87861 24.3491C6.07724 26.1674 7.70763 27.704 9.59361 28.7929C9.6896 28.8484 9.79429 28.8748 9.89767 28.8748C10.1084 28.8748 10.3132 28.7655 10.4259 28.5699C10.5942 28.2784 10.4943 27.9058 10.2028 27.7374L10.2029 27.7375ZM2.25012 16.6015C2.25012 16.0974 2.66017 15.6874 3.16424 15.6874C3.66831 15.6874 4.07837 16.0974 4.07837 16.6015C4.07837 17.1056 3.66831 17.5156 3.16424 17.5156C2.66017 17.5156 2.25012 17.1056 2.25012 16.6015Z" fill="#2C7B98" stroke="#2C7B98" stroke-width="1.5"/>
<path d="M28.6008 22.8083C28.3091 22.64 27.9365 22.7399 27.7683 23.0314C25.8311 26.3867 22.4377 28.7058 18.6237 29.3059C18.3157 28.5064 17.5391 27.9375 16.6324 27.9375C15.4562 27.9375 14.4994 28.8943 14.4994 30.0705C14.4994 31.2466 15.4562 32.2035 16.6324 32.2035C17.6527 32.2035 18.5081 31.4832 18.7168 30.5247C20.7306 30.2222 22.6805 29.4767 24.3801 28.3562C26.1984 27.1576 27.735 25.5272 28.8239 23.6412C28.9922 23.3498 28.8923 22.9769 28.6008 22.8087L28.6008 22.8083ZM16.6323 30.9845C16.1282 30.9845 15.7182 30.5744 15.7182 30.0704C15.7182 29.5663 16.1282 29.1562 16.6323 29.1562C17.1364 29.1562 17.5464 29.5663 17.5464 30.0704C17.5464 30.5744 17.1364 30.9845 16.6323 30.9845Z" fill="#2C7B98" stroke="#2C7B98" stroke-width="1.5"/>
<path d="M30.555 14.5172C30.2525 12.5034 29.507 10.5535 28.3865 8.8539C27.1879 7.03562 25.5575 5.499 23.6715 4.41008C23.3799 4.24184 23.0072 4.34174 22.839 4.63318C22.6708 4.92461 22.7707 5.29724 23.0621 5.46567C26.4175 7.4028 28.7366 10.7962 29.3366 14.6103C28.5372 14.9183 27.9682 15.6949 27.9682 16.6016C27.9682 17.7778 28.925 18.7346 30.1012 18.7346C31.2774 18.7346 32.2342 17.7778 32.2342 16.6016C32.2342 15.5813 31.514 14.7259 30.5554 14.5171L30.555 14.5172ZM30.1008 17.5155C29.5967 17.5155 29.1866 17.1055 29.1866 16.6014C29.1866 16.0973 29.5967 15.6873 30.1008 15.6873C30.6048 15.6873 31.0149 16.0973 31.0149 16.6014C31.0149 17.1055 30.6048 17.5155 30.1008 17.5155Z" fill="#2C7B98" stroke="#2C7B98" stroke-width="1.5"/>
<path d="M51.3107 21.4673H48.9279V10.0454H55.4747V12.0298H51.3107V14.9751H55.1857V16.9517H51.3107V21.4673ZM61.0997 12.5532C62.2716 12.5532 63.17 12.8084 63.795 13.3188C64.42 13.8293 64.7325 14.6053 64.7325 15.647V21.4673H63.0685L62.6075 20.2798H62.545C62.295 20.5923 62.0398 20.8475 61.7794 21.0454C61.519 21.2433 61.2195 21.3892 60.881 21.4829C60.5424 21.5767 60.131 21.6235 59.6466 21.6235C59.131 21.6235 58.6674 21.5246 58.256 21.3267C57.8497 21.1287 57.5294 20.8267 57.295 20.4204C57.0607 20.009 56.9435 19.4881 56.9435 18.8579C56.9435 17.9308 57.269 17.2485 57.92 16.811C58.5711 16.3683 59.5476 16.1235 60.8497 16.0767L62.3654 16.0298V15.647C62.3654 15.1886 62.2456 14.8527 62.006 14.6392C61.7664 14.4256 61.4331 14.3188 61.006 14.3188C60.5841 14.3188 60.17 14.3787 59.7638 14.4985C59.3575 14.6183 58.9513 14.7694 58.545 14.9517L57.756 13.3423C58.2195 13.0975 58.7378 12.9048 59.3107 12.7642C59.8888 12.6235 60.4851 12.5532 61.0997 12.5532ZM62.3654 17.4204L61.4435 17.4517C60.6726 17.4725 60.1362 17.6105 59.8341 17.8657C59.5372 18.1209 59.3888 18.4569 59.3888 18.8735C59.3888 19.2381 59.4956 19.4985 59.7091 19.6548C59.9226 19.8058 60.2013 19.8813 60.545 19.8813C61.0555 19.8813 61.4851 19.7303 61.8341 19.4282C62.1883 19.1261 62.3654 18.6965 62.3654 18.1392V17.4204ZM73.2872 18.8735C73.2872 19.4673 73.1466 19.9699 72.8654 20.3813C72.5893 20.7876 72.1753 21.0975 71.6232 21.311C71.0711 21.5194 70.3836 21.6235 69.5607 21.6235C68.9513 21.6235 68.4279 21.5845 67.9904 21.5063C67.5581 21.4282 67.1206 21.298 66.6779 21.1157V19.147C67.1518 19.3605 67.6596 19.5376 68.2013 19.6782C68.7482 19.8136 69.2273 19.8813 69.6388 19.8813C70.1023 19.8813 70.4331 19.8136 70.631 19.6782C70.8341 19.5376 70.9357 19.3553 70.9357 19.1313C70.9357 18.9855 70.894 18.8553 70.8107 18.7407C70.7325 18.6209 70.5607 18.4881 70.295 18.3423C70.0294 18.1912 69.6128 17.9959 69.045 17.7563C68.4982 17.5272 68.0476 17.2954 67.6935 17.061C67.3445 16.8267 67.0841 16.5506 66.9122 16.2329C66.7456 15.91 66.6622 15.5011 66.6622 15.0063C66.6622 14.1991 66.9747 13.5923 67.5997 13.186C68.2299 12.7746 69.0711 12.5688 70.1232 12.5688C70.6648 12.5688 71.1805 12.6235 71.67 12.7329C72.1648 12.8423 72.6726 13.0168 73.1935 13.2563L72.4747 14.9751C72.0424 14.7876 71.6336 14.634 71.2482 14.5142C70.868 14.3944 70.4799 14.3345 70.0841 14.3345C69.7351 14.3345 69.4721 14.3813 69.295 14.4751C69.118 14.5688 69.0294 14.7121 69.0294 14.9048C69.0294 15.0454 69.0737 15.1704 69.1622 15.2798C69.256 15.3892 69.4331 15.5116 69.6935 15.647C69.9591 15.7772 70.3471 15.9465 70.8575 16.1548C71.3523 16.3579 71.782 16.5715 72.1466 16.7954C72.5112 17.0142 72.7924 17.2876 72.9904 17.6157C73.1883 17.9386 73.2872 18.3579 73.2872 18.8735ZM77.5294 9.31104V11.7876C77.5294 12.2199 77.5138 12.6313 77.4825 13.022C77.4565 13.4126 77.4357 13.6886 77.42 13.8501H77.545C77.7325 13.548 77.9539 13.3032 78.2091 13.1157C78.4695 12.9282 78.756 12.7902 79.0685 12.7017C79.381 12.6131 79.7169 12.5688 80.0763 12.5688C80.7065 12.5688 81.256 12.6808 81.7247 12.9048C82.1935 13.1235 82.5581 13.4699 82.8185 13.9438C83.0789 14.4126 83.2091 15.022 83.2091 15.772V21.4673H80.8263V16.3657C80.8263 15.7407 80.7117 15.2694 80.4825 14.9517C80.2534 14.634 79.8992 14.4751 79.42 14.4751C78.9409 14.4751 78.5633 14.5871 78.2872 14.811C78.0112 15.0298 77.8159 15.3553 77.7013 15.7876C77.5867 16.2147 77.5294 16.7381 77.5294 17.3579V21.4673H75.1466V9.31104H77.5294ZM88.045 12.7329V21.4673H85.6622V12.7329H88.045ZM86.8575 9.31104C87.2117 9.31104 87.5164 9.39437 87.7716 9.56104C88.0268 9.72249 88.1544 10.0272 88.1544 10.4751C88.1544 10.9178 88.0268 11.2251 87.7716 11.397C87.5164 11.5636 87.2117 11.647 86.8575 11.647C86.4982 11.647 86.1909 11.5636 85.9357 11.397C85.6857 11.2251 85.5607 10.9178 85.5607 10.4751C85.5607 10.0272 85.6857 9.72249 85.9357 9.56104C86.1909 9.39437 86.4982 9.31104 86.8575 9.31104ZM98.4904 17.0845C98.4904 17.8136 98.3914 18.4595 98.1935 19.022C98.0008 19.5845 97.7169 20.061 97.3419 20.4517C96.9721 20.8371 96.5242 21.1287 95.9982 21.3267C95.4773 21.5246 94.8888 21.6235 94.2325 21.6235C93.618 21.6235 93.0529 21.5246 92.5372 21.3267C92.0268 21.1287 91.5815 20.8371 91.2013 20.4517C90.8263 20.061 90.5346 19.5845 90.3263 19.022C90.1232 18.4595 90.0216 17.8136 90.0216 17.0845C90.0216 16.1157 90.1935 15.2954 90.5372 14.6235C90.881 13.9517 91.3706 13.4412 92.006 13.0923C92.6414 12.7433 93.3992 12.5688 94.2794 12.5688C95.0971 12.5688 95.8211 12.7433 96.4513 13.0923C97.0867 13.4412 97.5841 13.9517 97.9435 14.6235C98.3081 15.2954 98.4904 16.1157 98.4904 17.0845ZM92.4513 17.0845C92.4513 17.6574 92.5138 18.1392 92.6388 18.5298C92.7638 18.9204 92.9591 19.2147 93.2247 19.4126C93.4904 19.6105 93.8367 19.7095 94.2638 19.7095C94.6857 19.7095 95.0268 19.6105 95.2872 19.4126C95.5529 19.2147 95.7456 18.9204 95.8654 18.5298C95.9904 18.1392 96.0529 17.6574 96.0529 17.0845C96.0529 16.5063 95.9904 16.0272 95.8654 15.647C95.7456 15.2616 95.5529 14.9725 95.2872 14.7798C95.0216 14.5871 94.6753 14.4907 94.2482 14.4907C93.618 14.4907 93.1596 14.7069 92.8732 15.1392C92.5919 15.5715 92.4513 16.2199 92.4513 17.0845ZM105.42 12.5688C106.352 12.5688 107.102 12.8241 107.67 13.3345C108.238 13.8397 108.522 14.6522 108.522 15.772V21.4673H106.139V16.3657C106.139 15.7407 106.024 15.2694 105.795 14.9517C105.571 14.634 105.217 14.4751 104.733 14.4751C104.003 14.4751 103.506 14.7225 103.24 15.2173C102.975 15.7121 102.842 16.4256 102.842 17.3579V21.4673H100.459V12.7329H102.279L102.6 13.8501H102.733C102.92 13.548 103.152 13.3032 103.428 13.1157C103.709 12.9282 104.019 12.7902 104.358 12.7017C104.701 12.6131 105.055 12.5688 105.42 12.5688ZM113.545 21.4673H111.162V10.0454H117.709V12.0298H113.545V14.9751H117.42V16.9517H113.545V21.4673ZM127.693 17.0845C127.693 17.8136 127.595 18.4595 127.397 19.022C127.204 19.5845 126.92 20.061 126.545 20.4517C126.175 20.8371 125.727 21.1287 125.201 21.3267C124.68 21.5246 124.092 21.6235 123.436 21.6235C122.821 21.6235 122.256 21.5246 121.74 21.3267C121.23 21.1287 120.785 20.8371 120.404 20.4517C120.029 20.061 119.738 19.5845 119.529 19.022C119.326 18.4595 119.225 17.8136 119.225 17.0845C119.225 16.1157 119.397 15.2954 119.74 14.6235C120.084 13.9517 120.574 13.4412 121.209 13.0923C121.845 12.7433 122.602 12.5688 123.483 12.5688C124.3 12.5688 125.024 12.7433 125.654 13.0923C126.29 13.4412 126.787 13.9517 127.147 14.6235C127.511 15.2954 127.693 16.1157 127.693 17.0845ZM121.654 17.0845C121.654 17.6574 121.717 18.1392 121.842 18.5298C121.967 18.9204 122.162 19.2147 122.428 19.4126C122.693 19.6105 123.04 19.7095 123.467 19.7095C123.889 19.7095 124.23 19.6105 124.49 19.4126C124.756 19.2147 124.949 18.9204 125.068 18.5298C125.193 18.1392 125.256 17.6574 125.256 17.0845C125.256 16.5063 125.193 16.0272 125.068 15.647C124.949 15.2616 124.756 14.9725 124.49 14.7798C124.225 14.5871 123.878 14.4907 123.451 14.4907C122.821 14.4907 122.363 14.7069 122.076 15.1392C121.795 15.5715 121.654 16.2199 121.654 17.0845ZM134.537 12.5688C134.657 12.5688 134.795 12.5767 134.951 12.5923C135.113 12.6027 135.243 12.6183 135.342 12.6392L135.162 14.8735C135.084 14.8475 134.972 14.8293 134.826 14.8188C134.686 14.8032 134.563 14.7954 134.459 14.7954C134.152 14.7954 133.852 14.8345 133.561 14.9126C133.274 14.9907 133.016 15.1183 132.787 15.2954C132.558 15.4673 132.376 15.6965 132.24 15.9829C132.11 16.2642 132.045 16.6105 132.045 17.022V21.4673H129.662V12.7329H131.467L131.818 14.2017H131.936C132.108 13.9048 132.321 13.634 132.576 13.3892C132.837 13.1392 133.131 12.9412 133.459 12.7954C133.792 12.6444 134.152 12.5688 134.537 12.5688ZM144.108 21.4673L143.279 18.7485H139.115L138.287 21.4673H135.678L139.709 9.99854H142.67L146.717 21.4673H144.108ZM142.701 16.7173L141.873 14.061C141.821 13.884 141.751 13.6574 141.662 13.3813C141.579 13.1001 141.493 12.8162 141.404 12.5298C141.321 12.2381 141.253 11.9855 141.201 11.772C141.149 11.9855 141.076 12.2511 140.983 12.5688C140.894 12.8813 140.808 13.1782 140.725 13.4595C140.641 13.7407 140.582 13.9412 140.545 14.061L139.725 16.7173H142.701ZM150.358 21.4673H147.975V9.31104H150.358V21.4673ZM155.248 21.4673H152.865V9.31104H155.248V21.4673Z" fill="#2C7B98"/>
</svg>
