<svg width="233" height="47" viewBox="0 0 233 47" fill="none" xmlns="http://www.w3.org/2000/svg">
<path d="M31.7204 23.4998C31.7204 19.3809 28.3693 16.0298 24.2505 16.0298C20.1316 16.0298 16.7805 19.3809 16.7805 23.4998C16.7805 27.6186 20.1316 30.9697 24.2505 30.9697C28.3693 30.9697 31.7204 27.6186 31.7204 23.4998ZM24.2506 24.818C23.5237 24.818 22.9324 24.2266 22.9324 23.4998C22.9324 22.7729 23.5237 22.1815 24.2506 22.1815C24.9774 22.1815 25.5688 22.7729 25.5688 23.4998C25.5688 24.2266 24.9774 24.818 24.2506 24.818Z" fill="#3734A9"/>
<path d="M21.439 28.471C22.2695 28.9424 23.2292 29.2121 24.2506 29.2121C25.2719 29.2121 26.2316 28.9424 27.0621 28.471M26.349 25.7464C27.1676 26.1039 27.8911 26.6647 28.4397 27.3794C29.3844 26.36 29.9629 24.9963 29.9629 23.4998C29.9629 20.3498 27.4002 17.7874 24.2506 17.7874C21.1006 17.7874 18.5382 20.3502 18.5382 23.4998C18.5382 24.9963 19.117 26.3596 20.0617 27.3791C20.6104 26.6648 21.3338 26.1036 22.1521 25.7464C21.551 25.1846 21.1747 24.3854 21.1747 23.4998C21.1747 21.8037 22.5545 20.4239 24.2506 20.4239M31.7204 23.4998C31.7204 19.3809 28.3693 16.0298 24.2505 16.0298C20.1316 16.0298 16.7805 19.3809 16.7805 23.4998C16.7805 27.6186 20.1316 30.9697 24.2505 30.9697C28.3693 30.9697 31.7204 27.6186 31.7204 23.4998ZM24.2506 24.818C23.5237 24.818 22.9324 24.2266 22.9324 23.4998C22.9324 22.7729 23.5237 22.1815 24.2506 22.1815C24.9774 22.1815 25.5688 22.7729 25.5688 23.4998C25.5688 24.2266 24.9774 24.818 24.2506 24.818Z" stroke="#3734A9" stroke-width="2"/>
<path d="M36.5541 23.4998C36.5541 16.7156 31.0348 11.1968 24.251 11.1968C17.4673 11.1968 11.948 16.716 11.948 23.4998C11.948 30.2836 17.4673 35.8029 24.251 35.8029C31.0348 35.8029 36.5541 30.2836 36.5541 23.4998ZM13.7044 23.4998C13.7044 17.6849 18.4353 12.954 24.2502 12.954C30.0652 12.954 34.796 17.6849 34.796 23.4998C34.796 29.3148 30.0652 34.0456 24.2502 34.0456C18.4353 34.0456 13.7044 29.3148 13.7044 23.4998Z" fill="#3734A9" stroke="#3734A9" stroke-width="2"/>
<path d="M6.99191 14.5499C7.13033 14.6299 7.2813 14.6679 7.43038 14.6679C7.73419 14.6679 8.02954 14.5104 8.19213 14.2282C10.9855 9.38998 15.879 6.04626 21.379 5.1801C21.8234 6.33327 22.943 7.15339 24.2505 7.15339C25.9466 7.15339 27.3264 5.77364 27.3264 4.07755C27.3264 2.38146 25.9466 1.00171 24.2505 1.00171C22.7792 1.00171 21.5456 2.0403 21.2447 3.42254C18.3408 3.85881 15.5289 4.93383 13.078 6.54957C10.456 8.27803 8.24009 10.6291 6.66983 13.3488C6.42722 13.7694 6.57128 14.3067 6.99154 14.5493L6.99191 14.5499ZM24.2509 2.7595C24.9778 2.7595 25.5691 3.35082 25.5691 4.0777C25.5691 4.80459 24.9778 5.39591 24.2509 5.39591C23.524 5.39591 22.9327 4.80459 22.9327 4.0777C22.9327 3.35082 23.524 2.7595 24.2509 2.7595Z" fill="#3734A9" stroke="#3734A9" stroke-width="2"/>
<path d="M14.9791 39.5583C10.1406 36.7649 6.79636 31.8715 5.93181 26.3714C7.08465 25.9273 7.9051 24.8074 7.9051 23.4999C7.9051 21.8038 6.52534 20.4241 4.82926 20.4241C3.13317 20.4241 1.75342 21.8038 1.75342 23.4999C1.75342 24.9713 2.79201 26.2048 4.17425 26.5054C4.61052 29.4093 5.68554 32.2212 7.30127 34.6721C9.02974 37.2941 11.3808 39.51 14.1005 41.0803C14.2389 41.1603 14.3899 41.1983 14.539 41.1983C14.8428 41.1983 15.1381 41.0407 15.3007 40.7586C15.5433 40.3383 15.3993 39.801 14.979 39.5581L14.9791 39.5583ZM3.51089 23.4998C3.51089 22.7728 4.10221 22.1815 4.8291 22.1815C5.55598 22.1815 6.1473 22.7729 6.1473 23.4998C6.1473 24.2266 5.55598 24.818 4.8291 24.818C4.10221 24.818 3.51089 24.2266 3.51089 23.4998Z" fill="#3734A9" stroke="#3734A9" stroke-width="2"/>
<path d="M41.5095 32.4501C41.0889 32.2075 40.5516 32.3516 40.309 32.7718C37.5156 37.6104 32.6222 40.9546 27.1222 41.8199C26.678 40.6671 25.5582 39.8466 24.2506 39.8466C22.5546 39.8466 21.1748 41.2264 21.1748 42.9225C21.1748 44.6186 22.5546 45.9983 24.2506 45.9983C25.722 45.9983 26.9555 44.9597 27.2565 43.5775C30.1604 43.1412 32.9723 42.0662 35.4232 40.4504C38.0452 38.722 40.2611 36.3709 41.8313 33.6512C42.0739 33.231 41.9299 32.6933 41.5096 32.4507L41.5095 32.4501ZM24.2506 44.2405C23.5237 44.2405 22.9324 43.6492 22.9324 42.9223C22.9324 42.1954 23.5237 41.6041 24.2506 41.6041C24.9774 41.6041 25.5688 42.1954 25.5688 42.9223C25.5688 43.6492 24.9774 44.2405 24.2506 44.2405Z" fill="#3734A9" stroke="#3734A9" stroke-width="2"/>
<path d="M44.3275 20.4939C43.8913 17.59 42.8163 14.7781 41.2005 12.3273C39.4721 9.70523 37.121 7.48936 34.4013 5.9191C33.9807 5.67649 33.4434 5.82055 33.2008 6.24081C32.9582 6.66108 33.1023 7.19841 33.5225 7.44131C38.3611 10.2347 41.7053 15.1281 42.5706 20.6282C41.4178 21.0723 40.5973 22.1922 40.5973 23.4997C40.5973 25.1958 41.9771 26.5755 43.6732 26.5755C45.3693 26.5755 46.749 25.1958 46.749 23.4997C46.749 22.0283 45.7104 20.7948 44.3282 20.4938L44.3275 20.4939ZM43.6725 24.8177C42.9456 24.8177 42.3543 24.2263 42.3543 23.4995C42.3543 22.7726 42.9456 22.1813 43.6725 22.1813C44.3994 22.1813 44.9907 22.7726 44.9907 23.4995C44.9907 24.2263 44.3994 24.8177 43.6725 24.8177Z" fill="#3734A9" stroke="#3734A9" stroke-width="2"/>
<path d="M74.4795 32.0017H70.9053V14.8689H80.7256V17.8455H74.4795V22.2634H80.292V25.2283H74.4795V32.0017ZM89.1631 18.6306C90.9209 18.6306 92.2686 19.0134 93.2061 19.7791C94.1436 20.5447 94.6123 21.7087 94.6123 23.2712V32.0017H92.1162L91.4248 30.2205H91.3311C90.9561 30.6892 90.5732 31.072 90.1826 31.3689C89.792 31.6658 89.3428 31.8845 88.835 32.0251C88.3271 32.1658 87.71 32.2361 86.9834 32.2361C86.21 32.2361 85.5146 32.0876 84.8975 31.7908C84.2881 31.4939 83.8076 31.0408 83.4561 30.4314C83.1045 29.8142 82.9287 29.033 82.9287 28.0876C82.9287 26.697 83.417 25.6736 84.3936 25.0173C85.3701 24.3533 86.835 23.9861 88.7881 23.9158L91.0615 23.8455V23.2712C91.0615 22.5837 90.8818 22.0798 90.5225 21.7595C90.1631 21.4392 89.6631 21.2791 89.0225 21.2791C88.3896 21.2791 87.7686 21.3689 87.1592 21.5486C86.5498 21.7283 85.9404 21.9548 85.3311 22.2283L84.1475 19.8142C84.8428 19.447 85.6201 19.158 86.4795 18.947C87.3467 18.7361 88.2412 18.6306 89.1631 18.6306ZM91.0615 25.9314L89.6787 25.9783C88.5225 26.0095 87.7178 26.2166 87.2646 26.5994C86.8193 26.9822 86.5967 27.4861 86.5967 28.1111C86.5967 28.658 86.7568 29.0486 87.0771 29.283C87.3975 29.5095 87.8154 29.6228 88.3311 29.6228C89.0967 29.6228 89.7412 29.3962 90.2646 28.9431C90.7959 28.49 91.0615 27.8455 91.0615 27.0095V25.9314ZM107.444 28.1111C107.444 29.0017 107.233 29.7556 106.812 30.3728C106.397 30.9822 105.776 31.447 104.948 31.7673C104.12 32.0798 103.089 32.2361 101.854 32.2361C100.94 32.2361 100.155 32.1775 99.499 32.0603C98.8506 31.9431 98.1943 31.7478 97.5303 31.4744V28.5212C98.2412 28.8416 99.0029 29.1072 99.8154 29.3181C100.636 29.5212 101.354 29.6228 101.972 29.6228C102.667 29.6228 103.163 29.5212 103.46 29.3181C103.765 29.1072 103.917 28.8337 103.917 28.4978C103.917 28.2791 103.854 28.0837 103.729 27.9119C103.612 27.7322 103.354 27.533 102.956 27.3142C102.558 27.0876 101.933 26.7947 101.081 26.4353C100.261 26.0916 99.585 25.7439 99.0537 25.3923C98.5303 25.0408 98.1396 24.6267 97.8818 24.1501C97.6318 23.6658 97.5068 23.0525 97.5068 22.3103C97.5068 21.0994 97.9756 20.1892 98.9131 19.5798C99.8584 18.9626 101.12 18.6541 102.698 18.6541C103.511 18.6541 104.284 18.7361 105.019 18.9001C105.761 19.0642 106.522 19.3259 107.304 19.6853L106.226 22.2634C105.577 21.9822 104.964 21.7517 104.386 21.572C103.815 21.3923 103.233 21.3025 102.64 21.3025C102.116 21.3025 101.722 21.3728 101.456 21.5134C101.19 21.6541 101.058 21.8689 101.058 22.158C101.058 22.3689 101.124 22.5564 101.257 22.7205C101.397 22.8845 101.663 23.0681 102.054 23.2712C102.452 23.4666 103.034 23.7205 103.8 24.033C104.542 24.3376 105.187 24.658 105.733 24.9939C106.28 25.322 106.702 25.7322 106.999 26.2244C107.296 26.7087 107.444 27.3376 107.444 28.1111ZM113.808 13.7673V17.4822C113.808 18.1306 113.784 18.7478 113.737 19.3337C113.698 19.9197 113.667 20.3337 113.644 20.5759H113.831C114.112 20.1228 114.444 19.7556 114.827 19.4744C115.218 19.1931 115.647 18.9861 116.116 18.8533C116.585 18.7205 117.089 18.6541 117.628 18.6541C118.573 18.6541 119.397 18.822 120.101 19.158C120.804 19.4861 121.351 20.0056 121.741 20.7166C122.132 21.4197 122.327 22.3337 122.327 23.4587V32.0017H118.753V24.3494C118.753 23.4119 118.581 22.7048 118.237 22.2283C117.894 21.7517 117.362 21.5134 116.644 21.5134C115.925 21.5134 115.358 21.6814 114.944 22.0173C114.53 22.3455 114.237 22.8337 114.065 23.4822C113.894 24.1228 113.808 24.908 113.808 25.8376V32.0017H110.233V13.7673H113.808ZM129.581 18.9001V32.0017H126.007V18.9001H129.581ZM127.8 13.7673C128.331 13.7673 128.788 13.8923 129.171 14.1423C129.554 14.3845 129.745 14.8416 129.745 15.5134C129.745 16.1775 129.554 16.6384 129.171 16.8962C128.788 17.1462 128.331 17.2712 127.8 17.2712C127.261 17.2712 126.8 17.1462 126.417 16.8962C126.042 16.6384 125.854 16.1775 125.854 15.5134C125.854 14.8416 126.042 14.3845 126.417 14.1423C126.8 13.8923 127.261 13.7673 127.8 13.7673ZM145.249 25.4275C145.249 26.5212 145.101 27.49 144.804 28.3337C144.515 29.1775 144.089 29.8923 143.526 30.4783C142.972 31.0564 142.3 31.4939 141.511 31.7908C140.729 32.0876 139.847 32.2361 138.862 32.2361C137.94 32.2361 137.093 32.0876 136.319 31.7908C135.554 31.4939 134.886 31.0564 134.315 30.4783C133.753 29.8923 133.315 29.1775 133.003 28.3337C132.698 27.49 132.546 26.5212 132.546 25.4275C132.546 23.9744 132.804 22.7439 133.319 21.7361C133.835 20.7283 134.569 19.9626 135.522 19.4392C136.476 18.9158 137.612 18.6541 138.933 18.6541C140.159 18.6541 141.245 18.9158 142.19 19.4392C143.144 19.9626 143.89 20.7283 144.429 21.7361C144.976 22.7439 145.249 23.9744 145.249 25.4275ZM136.19 25.4275C136.19 26.2869 136.284 27.0095 136.472 27.5955C136.659 28.1814 136.952 28.6228 137.351 28.9197C137.749 29.2166 138.269 29.365 138.909 29.365C139.542 29.365 140.054 29.2166 140.444 28.9197C140.843 28.6228 141.132 28.1814 141.312 27.5955C141.499 27.0095 141.593 26.2869 141.593 25.4275C141.593 24.5603 141.499 23.8416 141.312 23.2712C141.132 22.6931 140.843 22.2595 140.444 21.9705C140.046 21.6814 139.526 21.5369 138.886 21.5369C137.94 21.5369 137.253 21.8611 136.823 22.5095C136.401 23.158 136.19 24.1306 136.19 25.4275ZM155.644 18.6541C157.042 18.6541 158.167 19.0369 159.019 19.8025C159.87 20.5603 160.296 21.7791 160.296 23.4587V32.0017H156.722V24.3494C156.722 23.4119 156.55 22.7048 156.206 22.2283C155.87 21.7517 155.339 21.5134 154.612 21.5134C153.519 21.5134 152.772 21.8845 152.374 22.6267C151.976 23.3689 151.776 24.4392 151.776 25.8376V32.0017H148.202V18.9001H150.933L151.413 20.5759H151.612C151.894 20.1228 152.241 19.7556 152.655 19.4744C153.077 19.1931 153.542 18.9861 154.05 18.8533C154.565 18.7205 155.097 18.6541 155.644 18.6541ZM167.831 32.0017H164.257V14.8689H174.077V17.8455H167.831V22.2634H173.644V25.2283H167.831V32.0017ZM189.054 25.4275C189.054 26.5212 188.905 27.49 188.608 28.3337C188.319 29.1775 187.894 29.8923 187.331 30.4783C186.776 31.0564 186.104 31.4939 185.315 31.7908C184.534 32.0876 183.651 32.2361 182.667 32.2361C181.745 32.2361 180.897 32.0876 180.124 31.7908C179.358 31.4939 178.69 31.0564 178.12 30.4783C177.558 29.8923 177.12 29.1775 176.808 28.3337C176.503 27.49 176.351 26.5212 176.351 25.4275C176.351 23.9744 176.608 22.7439 177.124 21.7361C177.64 20.7283 178.374 19.9626 179.327 19.4392C180.28 18.9158 181.417 18.6541 182.737 18.6541C183.964 18.6541 185.05 18.9158 185.995 19.4392C186.948 19.9626 187.694 20.7283 188.233 21.7361C188.78 22.7439 189.054 23.9744 189.054 25.4275ZM179.995 25.4275C179.995 26.2869 180.089 27.0095 180.276 27.5955C180.464 28.1814 180.757 28.6228 181.155 28.9197C181.554 29.2166 182.073 29.365 182.714 29.365C183.347 29.365 183.858 29.2166 184.249 28.9197C184.647 28.6228 184.937 28.1814 185.116 27.5955C185.304 27.0095 185.397 26.2869 185.397 25.4275C185.397 24.5603 185.304 23.8416 185.116 23.2712C184.937 22.6931 184.647 22.2595 184.249 21.9705C183.851 21.6814 183.331 21.5369 182.69 21.5369C181.745 21.5369 181.058 21.8611 180.628 22.5095C180.206 23.158 179.995 24.1306 179.995 25.4275ZM199.319 18.6541C199.499 18.6541 199.706 18.6658 199.94 18.6892C200.183 18.7048 200.378 18.7283 200.526 18.7595L200.257 22.1111C200.14 22.072 199.972 22.0447 199.753 22.0291C199.542 22.0056 199.358 21.9939 199.202 21.9939C198.741 21.9939 198.292 22.0525 197.854 22.1697C197.425 22.2869 197.038 22.4783 196.694 22.7439C196.351 23.0017 196.077 23.3455 195.874 23.7751C195.679 24.197 195.581 24.7166 195.581 25.3337V32.0017H192.007V18.9001H194.714L195.241 21.1033H195.417C195.675 20.658 195.995 20.2517 196.378 19.8845C196.769 19.5095 197.21 19.2126 197.702 18.9939C198.202 18.7673 198.741 18.6541 199.319 18.6541ZM213.675 32.0017L212.433 27.9236H206.187L204.944 32.0017H201.03L207.077 14.7986H211.519L217.589 32.0017H213.675ZM211.565 24.8767L210.323 20.8923C210.245 20.6267 210.14 20.2869 210.007 19.8728C209.882 19.4509 209.753 19.0251 209.62 18.5955C209.495 18.158 209.394 17.7791 209.315 17.4587C209.237 17.7791 209.128 18.1775 208.987 18.6541C208.854 19.1228 208.726 19.5681 208.601 19.99C208.476 20.4119 208.386 20.7126 208.331 20.8923L207.101 24.8767H211.565ZM223.05 32.0017H219.476V13.7673H223.05V32.0017ZM230.386 32.0017H226.812V13.7673H230.386V32.0017Z" fill="#3734A9"/>
</svg>
