<svg width="130" height="23" viewBox="0 0 130 23" fill="none" xmlns="http://www.w3.org/2000/svg">
<path d="M0.000143422 21.2331L5.55584 21.4615L5.80452 15.4113C5.87215 13.766 5.07109 12.2065 3.69565 11.3058L0.494348 9.20951L0.000143422 21.2331Z" fill="#00141B"/>
<path d="M22.1348 2.85461L16.5791 2.62626L15.9241 18.5618L21.3433 22.1105L22.1348 2.85461Z" fill="#0E186C"/>
<path d="M13.1383 10.1243L0.790711 1.99488L0.524252 8.4776L15.2966 18.1992L15.4437 14.6194C15.5177 12.8188 14.6423 11.1119 13.1383 10.1243Z" fill="#63866A"/>
<path d="M40.2737 17.6018H37.1956L32.2268 8.96118H32.1565C32.1773 9.32056 32.1956 9.68254 32.2112 10.0471C32.2268 10.4117 32.2424 10.7763 32.2581 11.1409C32.2737 11.5002 32.2893 11.8622 32.3049 12.2268V17.6018H30.1409V6.17993H33.1956L38.1565 14.7346H38.2112C38.2008 14.3805 38.1877 14.0289 38.1721 13.6799C38.1565 13.331 38.1409 12.982 38.1252 12.6331C38.1148 12.2841 38.1044 11.9351 38.094 11.5862V6.17993H40.2737V17.6018ZM46.5706 8.70337C47.3778 8.70337 48.0732 8.85962 48.6565 9.17212C49.2398 9.47941 49.6903 9.92733 50.0081 10.5159C50.3258 11.1044 50.4846 11.8232 50.4846 12.6721V13.8284H44.8518C44.8778 14.5002 45.0784 15.0289 45.4534 15.4143C45.8336 15.7945 46.3596 15.9846 47.0315 15.9846C47.5888 15.9846 48.0992 15.9273 48.5627 15.8127C49.0263 15.6982 49.5028 15.5263 49.9924 15.2971V17.1409C49.5601 17.3544 49.107 17.5107 48.6331 17.6096C48.1643 17.7086 47.594 17.7581 46.9221 17.7581C46.0471 17.7581 45.2711 17.5966 44.594 17.2737C43.9221 16.9508 43.3935 16.4586 43.0081 15.7971C42.6278 15.1357 42.4377 14.3023 42.4377 13.2971C42.4377 12.2763 42.6096 11.4273 42.9534 10.7502C43.3023 10.068 43.7867 9.55754 44.4065 9.21899C45.0263 8.87524 45.7476 8.70337 46.5706 8.70337ZM46.5862 10.3987C46.1226 10.3987 45.7372 10.5471 45.4299 10.844C45.1278 11.1409 44.9534 11.607 44.9065 12.2424H48.2502C48.245 11.8883 48.1799 11.5732 48.0549 11.2971C47.9351 11.0211 47.7528 10.8023 47.5081 10.6409C47.2685 10.4794 46.9612 10.3987 46.5862 10.3987ZM54.2112 13.1409L51.3987 8.86743H54.1018L55.7971 11.6487L57.5081 8.86743H60.2112L57.3674 13.1409L60.344 17.6018H57.6331L55.7971 14.6096L53.9534 17.6018H51.2502L54.2112 13.1409ZM65.3518 15.8596C65.6122 15.8596 65.8648 15.8336 66.1096 15.7815C66.3596 15.7294 66.607 15.6643 66.8518 15.5862V17.3596C66.5966 17.4742 66.2789 17.568 65.8987 17.6409C65.5237 17.719 65.1122 17.7581 64.6643 17.7581C64.1435 17.7581 63.6747 17.6747 63.2581 17.5081C62.8466 17.3362 62.5211 17.0419 62.2815 16.6252C62.0471 16.2034 61.9299 15.6174 61.9299 14.8674V10.6565H60.7893V9.64868L62.1018 8.85181L62.7893 7.00806H64.3127V8.86743H66.7581V10.6565H64.3127V14.8674C64.3127 15.2008 64.4065 15.4508 64.594 15.6174C64.7867 15.7789 65.0393 15.8596 65.3518 15.8596ZM71.1956 17.6018H68.8127V6.17993H75.3596V8.16431H71.1956V11.1096H75.0706V13.0862H71.1956V17.6018ZM80.9846 8.68774C82.1565 8.68774 83.0549 8.94295 83.6799 9.45337C84.3049 9.96379 84.6174 10.7398 84.6174 11.7815V17.6018H82.9534L82.4924 16.4143H82.4299C82.1799 16.7268 81.9247 16.982 81.6643 17.1799C81.4039 17.3778 81.1044 17.5237 80.7659 17.6174C80.4273 17.7112 80.0159 17.7581 79.5315 17.7581C79.0159 17.7581 78.5523 17.6591 78.1409 17.4612C77.7346 17.2633 77.4143 16.9612 77.1799 16.5549C76.9456 16.1435 76.8284 15.6226 76.8284 14.9924C76.8284 14.0653 77.1539 13.3831 77.8049 12.9456C78.456 12.5028 79.4325 12.2581 80.7346 12.2112L82.2502 12.1643V11.7815C82.2502 11.3232 82.1305 10.9872 81.8909 10.7737C81.6513 10.5601 81.318 10.4534 80.8909 10.4534C80.469 10.4534 80.0549 10.5133 79.6487 10.6331C79.2424 10.7528 78.8362 10.9039 78.4299 11.0862L77.6409 9.47681C78.1044 9.23201 78.6226 9.03931 79.1956 8.89868C79.7737 8.75806 80.37 8.68774 80.9846 8.68774ZM82.2502 13.5549L81.3284 13.5862C80.5575 13.607 80.0211 13.745 79.719 14.0002C79.4221 14.2555 79.2737 14.5914 79.2737 15.0081C79.2737 15.3726 79.3805 15.6331 79.594 15.7893C79.8075 15.9403 80.0862 16.0159 80.4299 16.0159C80.9403 16.0159 81.37 15.8648 81.719 15.5627C82.0732 15.2607 82.2502 14.831 82.2502 14.2737V13.5549ZM93.1721 15.0081C93.1721 15.6018 93.0315 16.1044 92.7502 16.5159C92.4742 16.9221 92.0601 17.232 91.5081 17.4456C90.956 17.6539 90.2685 17.7581 89.4456 17.7581C88.8362 17.7581 88.3127 17.719 87.8752 17.6409C87.443 17.5627 87.0055 17.4325 86.5627 17.2502V15.2815C87.0367 15.495 87.5445 15.6721 88.0862 15.8127C88.6331 15.9482 89.1122 16.0159 89.5237 16.0159C89.9872 16.0159 90.318 15.9482 90.5159 15.8127C90.719 15.6721 90.8206 15.4898 90.8206 15.2659C90.8206 15.12 90.7789 14.9898 90.6956 14.8752C90.6174 14.7555 90.4456 14.6226 90.1799 14.4768C89.9143 14.3258 89.4976 14.1305 88.9299 13.8909C88.3831 13.6617 87.9325 13.4299 87.5784 13.1956C87.2294 12.9612 86.969 12.6851 86.7971 12.3674C86.6305 12.0445 86.5471 11.6357 86.5471 11.1409C86.5471 10.3336 86.8596 9.72681 87.4846 9.32056C88.1148 8.9091 88.956 8.70337 90.0081 8.70337C90.5497 8.70337 91.0653 8.75806 91.5549 8.86743C92.0497 8.97681 92.5575 9.15129 93.0784 9.39087L92.3596 11.1096C91.9273 10.9221 91.5185 10.7685 91.1331 10.6487C90.7528 10.5289 90.3648 10.469 89.969 10.469C89.62 10.469 89.357 10.5159 89.1799 10.6096C89.0028 10.7034 88.9143 10.8466 88.9143 11.0393C88.9143 11.1799 88.9586 11.3049 89.0471 11.4143C89.1409 11.5237 89.318 11.6461 89.5784 11.7815C89.844 11.9117 90.232 12.081 90.7424 12.2893C91.2372 12.4924 91.6669 12.706 92.0315 12.9299C92.3961 13.1487 92.6773 13.4221 92.8752 13.7502C93.0732 14.0732 93.1721 14.4924 93.1721 15.0081ZM97.4143 5.44556V7.92212C97.4143 8.35441 97.3987 8.76587 97.3674 9.15649C97.3414 9.54712 97.3206 9.82316 97.3049 9.98462H97.4299C97.6174 9.68254 97.8388 9.43774 98.094 9.25024C98.3544 9.06274 98.6409 8.92472 98.9534 8.83618C99.2659 8.74764 99.6018 8.70337 99.9612 8.70337C100.591 8.70337 101.141 8.81535 101.61 9.03931C102.078 9.25806 102.443 9.60441 102.703 10.0784C102.964 10.5471 103.094 11.1565 103.094 11.9065V17.6018H100.711V12.5002C100.711 11.8752 100.597 11.4039 100.367 11.0862C100.138 10.7685 99.7841 10.6096 99.3049 10.6096C98.8258 10.6096 98.4482 10.7216 98.1721 10.9456C97.8961 11.1643 97.7008 11.4898 97.5862 11.9221C97.4716 12.3492 97.4143 12.8726 97.4143 13.4924V17.6018H95.0315V5.44556H97.4143ZM107.93 8.86743V17.6018H105.547V8.86743H107.93ZM106.742 5.44556C107.097 5.44556 107.401 5.52889 107.656 5.69556C107.912 5.85701 108.039 6.1617 108.039 6.60962C108.039 7.05233 107.912 7.35962 107.656 7.53149C107.401 7.69816 107.097 7.78149 106.742 7.78149C106.383 7.78149 106.076 7.69816 105.821 7.53149C105.571 7.35962 105.446 7.05233 105.446 6.60962C105.446 6.1617 105.571 5.85701 105.821 5.69556C106.076 5.52889 106.383 5.44556 106.742 5.44556ZM118.375 13.219C118.375 13.9482 118.276 14.594 118.078 15.1565C117.886 15.719 117.602 16.1956 117.227 16.5862C116.857 16.9716 116.409 17.2633 115.883 17.4612C115.362 17.6591 114.774 17.7581 114.117 17.7581C113.503 17.7581 112.938 17.6591 112.422 17.4612C111.912 17.2633 111.466 16.9716 111.086 16.5862C110.711 16.1956 110.42 15.719 110.211 15.1565C110.008 14.594 109.906 13.9482 109.906 13.219C109.906 12.2502 110.078 11.4299 110.422 10.7581C110.766 10.0862 111.255 9.57576 111.891 9.22681C112.526 8.87785 113.284 8.70337 114.164 8.70337C114.982 8.70337 115.706 8.87785 116.336 9.22681C116.972 9.57576 117.469 10.0862 117.828 10.7581C118.193 11.4299 118.375 12.2502 118.375 13.219ZM112.336 13.219C112.336 13.7919 112.399 14.2737 112.524 14.6643C112.649 15.0549 112.844 15.3492 113.11 15.5471C113.375 15.745 113.722 15.844 114.149 15.844C114.571 15.844 114.912 15.745 115.172 15.5471C115.438 15.3492 115.63 15.0549 115.75 14.6643C115.875 14.2737 115.938 13.7919 115.938 13.219C115.938 12.6409 115.875 12.1617 115.75 11.7815C115.63 11.3961 115.438 11.107 115.172 10.9143C114.906 10.7216 114.56 10.6252 114.133 10.6252C113.503 10.6252 113.045 10.8414 112.758 11.2737C112.477 11.706 112.336 12.3544 112.336 13.219ZM125.305 8.70337C126.237 8.70337 126.987 8.95858 127.555 9.46899C128.123 9.9742 128.406 10.7867 128.406 11.9065V17.6018H126.024V12.5002C126.024 11.8752 125.909 11.4039 125.68 11.0862C125.456 10.7685 125.102 10.6096 124.617 10.6096C123.888 10.6096 123.391 10.857 123.125 11.3518C122.86 11.8466 122.727 12.5601 122.727 13.4924V17.6018H120.344V8.86743H122.164L122.485 9.98462H122.617C122.805 9.68254 123.037 9.43774 123.313 9.25024C123.594 9.06274 123.904 8.92472 124.242 8.83618C124.586 8.74764 124.94 8.70337 125.305 8.70337Z" fill="#63866A"/>
</svg>
