<svg width="133" height="23" viewBox="0 0 133 23" fill="none" xmlns="http://www.w3.org/2000/svg">
<path d="M0.00159848 1.39697L0.107831 6.95635L6.16197 6.84066C7.80837 6.8092 9.31693 5.91579 10.1332 4.48866L12.0332 1.16706L0.00159848 1.39697Z" fill="#710051"/>
<path d="M19.6782 22.3861L19.572 16.8267L3.62589 17.1314L0.409546 22.7543L19.6782 22.3861Z" fill="#6C0E63"/>
<path d="M11.8805 13.8433L19.2525 1.0291L12.7655 1.15306L3.95003 16.4834L7.53218 16.4149C9.33398 16.3805 10.9852 15.404 11.8805 13.8433Z" fill="#B71DBA"/>
<path d="M39.2806 11.7228C39.2806 12.5717 39.1791 13.3504 38.976 14.0587C38.778 14.7618 38.4707 15.3712 38.0541 15.8868C37.6374 16.4025 37.1088 16.8061 36.4681 17.0978L39.2181 20.1681H36.1166L34.0228 17.6056C33.9864 17.6056 33.9551 17.6056 33.9291 17.6056C33.903 17.6056 33.8744 17.6056 33.8431 17.6056C32.9108 17.6056 32.1036 17.4676 31.4213 17.1915C30.739 16.9103 30.1739 16.5092 29.726 15.9884C29.2832 15.4676 28.9525 14.8452 28.7338 14.1212C28.515 13.3973 28.4056 12.5926 28.4056 11.7072C28.4056 10.5249 28.5983 9.49622 28.9838 8.62122C29.3744 7.74101 29.9733 7.05872 30.7806 6.57434C31.5879 6.08997 32.614 5.84778 33.8588 5.84778C35.0983 5.84778 36.1166 6.08997 36.9135 6.57434C37.7155 7.05872 38.3093 7.74101 38.6947 8.62122C39.0853 9.50142 39.2806 10.5353 39.2806 11.7228ZM30.9447 11.7228C30.9447 12.5197 31.0437 13.2072 31.2416 13.7853C31.4447 14.3582 31.7598 14.8009 32.1869 15.1134C32.614 15.4207 33.1661 15.5743 33.8431 15.5743C34.5306 15.5743 35.0879 15.4207 35.515 15.1134C35.9421 14.8009 36.252 14.3582 36.4447 13.7853C36.6426 13.2072 36.7416 12.5197 36.7416 11.7228C36.7416 10.5249 36.5176 9.58215 36.0697 8.89465C35.6218 8.20715 34.8848 7.8634 33.8588 7.8634C33.1765 7.8634 32.6192 8.01965 32.1869 8.33215C31.7598 8.63944 31.4447 9.08215 31.2416 9.66028C31.0437 10.2332 30.9447 10.9207 30.9447 11.7228ZM49.476 8.71497V17.4493H47.6478L47.3275 16.3322H47.2025C47.015 16.629 46.7806 16.8712 46.4994 17.0587C46.2181 17.2462 45.9082 17.3842 45.5697 17.4728C45.2312 17.5613 44.8796 17.6056 44.515 17.6056C43.89 17.6056 43.3457 17.4962 42.8822 17.2775C42.4187 17.0535 42.0567 16.7072 41.7963 16.2384C41.5411 15.7697 41.4135 15.1603 41.4135 14.4103V8.71497H43.7963V13.8165C43.7963 14.4415 43.9082 14.9129 44.1322 15.2306C44.3562 15.5483 44.7129 15.7072 45.2025 15.7072C45.6869 15.7072 46.0671 15.5978 46.3431 15.379C46.6192 15.1551 46.8119 14.8295 46.9213 14.4025C47.0358 13.9702 47.0931 13.4441 47.0931 12.8243V8.71497H49.476ZM55.5775 8.5509C56.3848 8.5509 57.0801 8.70715 57.6635 9.01965C58.2468 9.32694 58.6973 9.77486 59.015 10.3634C59.3327 10.9519 59.4916 11.6707 59.4916 12.5197V13.6759H53.8588C53.8848 14.3478 54.0853 14.8764 54.4603 15.2618C54.8405 15.642 55.3666 15.8322 56.0385 15.8322C56.5957 15.8322 57.1062 15.7749 57.5697 15.6603C58.0332 15.5457 58.5098 15.3738 58.9994 15.1447V16.9884C58.5671 17.2019 58.114 17.3582 57.64 17.4572C57.1713 17.5561 56.601 17.6056 55.9291 17.6056C55.0541 17.6056 54.278 17.4441 53.601 17.1212C52.9291 16.7983 52.4004 16.3061 52.015 15.6447C51.6348 14.9832 51.4447 14.1499 51.4447 13.1447C51.4447 12.1238 51.6166 11.2749 51.9603 10.5978C52.3093 9.91549 52.7937 9.40507 53.4135 9.06653C54.0332 8.72278 54.7546 8.5509 55.5775 8.5509ZM55.5931 10.2462C55.1296 10.2462 54.7442 10.3947 54.4369 10.6915C54.1348 10.9884 53.9603 11.4545 53.9135 12.09H57.2572C57.252 11.7358 57.1869 11.4207 57.0619 11.1447C56.9421 10.8686 56.7598 10.6499 56.515 10.4884C56.2754 10.3269 55.9681 10.2462 55.5931 10.2462ZM65.0306 8.5509C65.8379 8.5509 66.5332 8.70715 67.1166 9.01965C67.6999 9.32694 68.1504 9.77486 68.4681 10.3634C68.7858 10.9519 68.9447 11.6707 68.9447 12.5197V13.6759H63.3119C63.3379 14.3478 63.5385 14.8764 63.9135 15.2618C64.2937 15.642 64.8197 15.8322 65.4916 15.8322C66.0489 15.8322 66.5593 15.7749 67.0228 15.6603C67.4864 15.5457 67.9629 15.3738 68.4525 15.1447V16.9884C68.0202 17.2019 67.5671 17.3582 67.0931 17.4572C66.6244 17.5561 66.0541 17.6056 65.3822 17.6056C64.5072 17.6056 63.7312 17.4441 63.0541 17.1212C62.3822 16.7983 61.8536 16.3061 61.4681 15.6447C61.0879 14.9832 60.8978 14.1499 60.8978 13.1447C60.8978 12.1238 61.0697 11.2749 61.4135 10.5978C61.7624 9.91549 62.2468 9.40507 62.8666 9.06653C63.4864 8.72278 64.2077 8.5509 65.0306 8.5509ZM65.0463 10.2462C64.5827 10.2462 64.1973 10.3947 63.89 10.6915C63.5879 10.9884 63.4135 11.4545 63.3666 12.09H66.7103C66.7051 11.7358 66.64 11.4207 66.515 11.1447C66.3952 10.8686 66.2129 10.6499 65.9681 10.4884C65.7286 10.3269 65.4213 10.2462 65.0463 10.2462ZM75.8431 8.5509C76.7754 8.5509 77.5254 8.80611 78.0931 9.31653C78.6608 9.82174 78.9447 10.6342 78.9447 11.754V17.4493H76.5619V12.3478C76.5619 11.7228 76.4473 11.2514 76.2181 10.9337C75.9942 10.616 75.64 10.4572 75.1556 10.4572C74.4265 10.4572 73.9291 10.7045 73.6635 11.1993C73.3978 11.6941 73.265 12.4077 73.265 13.34V17.4493H70.8822V8.71497H72.7025L73.0228 9.83215H73.1556C73.3431 9.53007 73.5749 9.28528 73.851 9.09778C74.1322 8.91028 74.4421 8.77226 74.7806 8.68372C75.1244 8.59517 75.4786 8.5509 75.8431 8.5509ZM89.101 17.6056C88.2364 17.6056 87.4994 17.4493 86.89 17.1368C86.2806 16.8191 85.8171 16.3295 85.4994 15.6681C85.1817 15.0066 85.0228 14.1603 85.0228 13.129C85.0228 12.0613 85.2025 11.1915 85.5619 10.5197C85.9265 9.84257 86.4291 9.34517 87.0697 9.02747C87.7155 8.70976 88.4629 8.5509 89.3119 8.5509C89.9161 8.5509 90.4369 8.6108 90.8744 8.73059C91.3171 8.84517 91.7025 8.98319 92.0306 9.14465L91.3275 10.9884C90.9525 10.8374 90.6036 10.715 90.2806 10.6212C89.9577 10.5223 89.6348 10.4728 89.3119 10.4728C88.8952 10.4728 88.5489 10.5717 88.2728 10.7697C87.9968 10.9624 87.7911 11.254 87.6556 11.6447C87.5202 12.0353 87.4525 12.5249 87.4525 13.1134C87.4525 13.6915 87.5254 14.1707 87.6713 14.5509C87.8171 14.9311 88.028 15.215 88.3041 15.4025C88.5801 15.5848 88.9161 15.6759 89.3119 15.6759C89.8067 15.6759 90.2468 15.6108 90.6322 15.4806C91.0176 15.3452 91.3926 15.1577 91.7572 14.9181V16.9572C91.3926 17.1863 91.0098 17.3504 90.6088 17.4493C90.2129 17.5535 89.7103 17.6056 89.101 17.6056ZM96.1713 17.4493H93.7885V5.29309H96.1713V17.4493ZM106.617 13.0665C106.617 13.7957 106.518 14.4415 106.32 15.004C106.127 15.5665 105.843 16.0431 105.468 16.4337C105.098 16.8191 104.65 17.1108 104.124 17.3087C103.604 17.5066 103.015 17.6056 102.359 17.6056C101.744 17.6056 101.179 17.5066 100.663 17.3087C100.153 17.1108 99.7077 16.8191 99.3275 16.4337C98.9525 16.0431 98.6608 15.5665 98.4525 15.004C98.2494 14.4415 98.1478 13.7957 98.1478 13.0665C98.1478 12.0978 98.3197 11.2775 98.6635 10.6056C99.0072 9.93372 99.4968 9.4233 100.132 9.07434C100.768 8.72538 101.525 8.5509 102.406 8.5509C103.223 8.5509 103.947 8.72538 104.578 9.07434C105.213 9.4233 105.71 9.93372 106.07 10.6056C106.434 11.2775 106.617 12.0978 106.617 13.0665ZM100.578 13.0665C100.578 13.6394 100.64 14.1212 100.765 14.5118C100.89 14.9025 101.085 15.1967 101.351 15.3947C101.617 15.5926 101.963 15.6915 102.39 15.6915C102.812 15.6915 103.153 15.5926 103.413 15.3947C103.679 15.1967 103.872 14.9025 103.992 14.5118C104.117 14.1212 104.179 13.6394 104.179 13.0665C104.179 12.4884 104.117 12.0092 103.992 11.629C103.872 11.2436 103.679 10.9545 103.413 10.7618C103.148 10.5691 102.801 10.4728 102.374 10.4728C101.744 10.4728 101.286 10.6889 100.999 11.1212C100.718 11.5535 100.578 12.2019 100.578 13.0665ZM114.663 17.4493H107.765V16.0431L111.812 10.5353H108.007V8.71497H114.523V10.2618L110.585 15.629H114.663V17.4493ZM119.999 8.5509C120.807 8.5509 121.502 8.70715 122.085 9.01965C122.669 9.32694 123.119 9.77486 123.437 10.3634C123.755 10.9519 123.913 11.6707 123.913 12.5197V13.6759H118.281C118.307 14.3478 118.507 14.8764 118.882 15.2618C119.262 15.642 119.788 15.8322 120.46 15.8322C121.018 15.8322 121.528 15.7749 121.992 15.6603C122.455 15.5457 122.932 15.3738 123.421 15.1447V16.9884C122.989 17.2019 122.536 17.3582 122.062 17.4572C121.593 17.5561 121.023 17.6056 120.351 17.6056C119.476 17.6056 118.7 17.4441 118.023 17.1212C117.351 16.7983 116.822 16.3061 116.437 15.6447C116.057 14.9832 115.867 14.1499 115.867 13.1447C115.867 12.1238 116.038 11.2749 116.382 10.5978C116.731 9.91549 117.216 9.40507 117.835 9.06653C118.455 8.72278 119.176 8.5509 119.999 8.5509ZM120.015 10.2462C119.551 10.2462 119.166 10.3947 118.859 10.6915C118.557 10.9884 118.382 11.4545 118.335 12.09H121.679C121.674 11.7358 121.609 11.4207 121.484 11.1447C121.364 10.8686 121.182 10.6499 120.937 10.4884C120.697 10.3269 120.39 10.2462 120.015 10.2462ZM129.531 15.7072C129.791 15.7072 130.044 15.6811 130.288 15.629C130.538 15.5769 130.786 15.5118 131.031 15.4337V17.2072C130.775 17.3217 130.458 17.4155 130.078 17.4884C129.703 17.5665 129.291 17.6056 128.843 17.6056C128.322 17.6056 127.854 17.5223 127.437 17.3556C127.025 17.1837 126.7 16.8894 126.46 16.4728C126.226 16.0509 126.109 15.465 126.109 14.715V10.504H124.968V9.49622L126.281 8.69934L126.968 6.85559H128.492V8.71497H130.937V10.504H128.492V14.715C128.492 15.0483 128.585 15.2983 128.773 15.465C128.966 15.6264 129.218 15.7072 129.531 15.7072Z" fill="#B71DBA"/>
</svg>
