<svg width="134" height="23" viewBox="0 0 134 23" fill="none" xmlns="http://www.w3.org/2000/svg">
<path d="M0.774059 1.39697L0.880292 6.95635L6.93444 6.84066C8.58083 6.8092 10.0894 5.91579 10.9057 4.48866L12.8056 1.16706L0.774059 1.39697Z" fill="#710051"/>
<path d="M20.4507 22.3861L20.3445 16.8267L4.39836 17.1314L1.18201 22.7543L20.4507 22.3861Z" fill="#6C0E63"/>
<path d="M12.653 13.8433L20.025 1.0291L13.5379 1.15306L4.72249 16.4834L8.30465 16.4149C10.1064 16.3805 11.7576 15.404 12.653 13.8433Z" fill="#BAAA1D"/>
<path d="M40.0531 11.7228C40.0531 12.5717 39.9515 13.3504 39.7484 14.0587C39.5505 14.7618 39.2432 15.3712 38.8265 15.8868C38.4099 16.4025 37.8812 16.8061 37.2406 17.0978L39.9906 20.1681H36.889L34.7953 17.6056C34.7588 17.6056 34.7276 17.6056 34.7015 17.6056C34.6755 17.6056 34.6469 17.6056 34.6156 17.6056C33.6833 17.6056 32.876 17.4676 32.1937 17.1915C31.5114 16.9103 30.9463 16.5092 30.4984 15.9884C30.0557 15.4676 29.725 14.8452 29.5062 14.1212C29.2875 13.3973 29.1781 12.5926 29.1781 11.7072C29.1781 10.5249 29.3708 9.49622 29.7562 8.62122C30.1469 7.74101 30.7458 7.05872 31.5531 6.57434C32.3604 6.08997 33.3864 5.84778 34.6312 5.84778C35.8708 5.84778 36.889 6.08997 37.6859 6.57434C38.488 7.05872 39.0817 7.74101 39.4672 8.62122C39.8578 9.50142 40.0531 10.5353 40.0531 11.7228ZM31.7172 11.7228C31.7172 12.5197 31.8161 13.2072 32.014 13.7853C32.2172 14.3582 32.5323 14.8009 32.9594 15.1134C33.3864 15.4207 33.9385 15.5743 34.6156 15.5743C35.3031 15.5743 35.8604 15.4207 36.2875 15.1134C36.7146 14.8009 37.0245 14.3582 37.2172 13.7853C37.4151 13.2072 37.514 12.5197 37.514 11.7228C37.514 10.5249 37.2901 9.58215 36.8422 8.89465C36.3942 8.20715 35.6573 7.8634 34.6312 7.8634C33.9489 7.8634 33.3916 8.01965 32.9594 8.33215C32.5323 8.63944 32.2172 9.08215 32.014 9.66028C31.8161 10.2332 31.7172 10.9207 31.7172 11.7228ZM50.2484 8.71497V17.4493H48.4203L48.1 16.3322H47.975C47.7875 16.629 47.5531 16.8712 47.2719 17.0587C46.9906 17.2462 46.6807 17.3842 46.3422 17.4728C46.0036 17.5613 45.6521 17.6056 45.2875 17.6056C44.6625 17.6056 44.1182 17.4962 43.6547 17.2775C43.1911 17.0535 42.8291 16.7072 42.5687 16.2384C42.3135 15.7697 42.1859 15.1603 42.1859 14.4103V8.71497H44.5687V13.8165C44.5687 14.4415 44.6807 14.9129 44.9047 15.2306C45.1286 15.5483 45.4854 15.7072 45.975 15.7072C46.4594 15.7072 46.8396 15.5978 47.1156 15.379C47.3916 15.1551 47.5844 14.8295 47.6937 14.4025C47.8083 13.9702 47.8656 13.4441 47.8656 12.8243V8.71497H50.2484ZM56.35 8.5509C57.1573 8.5509 57.8526 8.70715 58.4359 9.01965C59.0192 9.32694 59.4698 9.77486 59.7875 10.3634C60.1052 10.9519 60.264 11.6707 60.264 12.5197V13.6759H54.6312C54.6573 14.3478 54.8578 14.8764 55.2328 15.2618C55.613 15.642 56.139 15.8322 56.8109 15.8322C57.3682 15.8322 57.8786 15.7749 58.3422 15.6603C58.8057 15.5457 59.2823 15.3738 59.7719 15.1447V16.9884C59.3396 17.2019 58.8864 17.3582 58.4125 17.4572C57.9437 17.5561 57.3734 17.6056 56.7015 17.6056C55.8265 17.6056 55.0505 17.4441 54.3734 17.1212C53.7015 16.7983 53.1729 16.3061 52.7875 15.6447C52.4073 14.9832 52.2172 14.1499 52.2172 13.1447C52.2172 12.1238 52.389 11.2749 52.7328 10.5978C53.0817 9.91549 53.5661 9.40507 54.1859 9.06653C54.8057 8.72278 55.5271 8.5509 56.35 8.5509ZM56.3656 10.2462C55.9021 10.2462 55.5166 10.3947 55.2094 10.6915C54.9073 10.9884 54.7328 11.4545 54.6859 12.09H58.0297C58.0245 11.7358 57.9594 11.4207 57.8344 11.1447C57.7146 10.8686 57.5323 10.6499 57.2875 10.4884C57.0479 10.3269 56.7406 10.2462 56.3656 10.2462ZM65.8031 8.5509C66.6104 8.5509 67.3057 8.70715 67.889 9.01965C68.4724 9.32694 68.9229 9.77486 69.2406 10.3634C69.5583 10.9519 69.7172 11.6707 69.7172 12.5197V13.6759H64.0844C64.1104 14.3478 64.3109 14.8764 64.6859 15.2618C65.0661 15.642 65.5922 15.8322 66.264 15.8322C66.8213 15.8322 67.3317 15.7749 67.7953 15.6603C68.2588 15.5457 68.7354 15.3738 69.225 15.1447V16.9884C68.7927 17.2019 68.3396 17.3582 67.8656 17.4572C67.3969 17.5561 66.8265 17.6056 66.1547 17.6056C65.2797 17.6056 64.5036 17.4441 63.8265 17.1212C63.1547 16.7983 62.626 16.3061 62.2406 15.6447C61.8604 14.9832 61.6703 14.1499 61.6703 13.1447C61.6703 12.1238 61.8422 11.2749 62.1859 10.5978C62.5349 9.91549 63.0192 9.40507 63.639 9.06653C64.2588 8.72278 64.9802 8.5509 65.8031 8.5509ZM65.8187 10.2462C65.3552 10.2462 64.9698 10.3947 64.6625 10.6915C64.3604 10.9884 64.1859 11.4545 64.139 12.09H67.4828C67.4776 11.7358 67.4125 11.4207 67.2875 11.1447C67.1677 10.8686 66.9854 10.6499 66.7406 10.4884C66.501 10.3269 66.1937 10.2462 65.8187 10.2462ZM76.6156 8.5509C77.5479 8.5509 78.2979 8.80611 78.8656 9.31653C79.4333 9.82174 79.7172 10.6342 79.7172 11.754V17.4493H77.3344V12.3478C77.3344 11.7228 77.2198 11.2514 76.9906 10.9337C76.7666 10.616 76.4125 10.4572 75.9281 10.4572C75.1989 10.4572 74.7015 10.7045 74.4359 11.1993C74.1703 11.6941 74.0375 12.4077 74.0375 13.34V17.4493H71.6547V8.71497H73.475L73.7953 9.83215H73.9281C74.1156 9.53007 74.3474 9.28528 74.6234 9.09778C74.9047 8.91028 75.2146 8.77226 75.5531 8.68372C75.8969 8.59517 76.251 8.5509 76.6156 8.5509ZM89.8734 17.6056C89.0088 17.6056 88.2719 17.4493 87.6625 17.1368C87.0531 16.8191 86.5896 16.3295 86.2719 15.6681C85.9541 15.0066 85.7953 14.1603 85.7953 13.129C85.7953 12.0613 85.975 11.1915 86.3344 10.5197C86.6989 9.84257 87.2015 9.34517 87.8422 9.02747C88.488 8.70976 89.2354 8.5509 90.0844 8.5509C90.6885 8.5509 91.2094 8.6108 91.6469 8.73059C92.0896 8.84517 92.475 8.98319 92.8031 9.14465L92.1 10.9884C91.725 10.8374 91.376 10.715 91.0531 10.6212C90.7302 10.5223 90.4073 10.4728 90.0844 10.4728C89.6677 10.4728 89.3213 10.5717 89.0453 10.7697C88.7692 10.9624 88.5635 11.254 88.4281 11.6447C88.2927 12.0353 88.225 12.5249 88.225 13.1134C88.225 13.6915 88.2979 14.1707 88.4437 14.5509C88.5896 14.9311 88.8005 15.215 89.0765 15.4025C89.3526 15.5848 89.6885 15.6759 90.0844 15.6759C90.5791 15.6759 91.0192 15.6108 91.4047 15.4806C91.7901 15.3452 92.1651 15.1577 92.5297 14.9181V16.9572C92.1651 17.1863 91.7823 17.3504 91.3812 17.4493C90.9854 17.5535 90.4828 17.6056 89.8734 17.6056ZM96.9437 17.4493H94.5609V5.29309H96.9437V17.4493ZM107.389 13.0665C107.389 13.7957 107.29 14.4415 107.092 15.004C106.899 15.5665 106.616 16.0431 106.241 16.4337C105.871 16.8191 105.423 17.1108 104.897 17.3087C104.376 17.5066 103.787 17.6056 103.131 17.6056C102.517 17.6056 101.952 17.5066 101.436 17.3087C100.925 17.1108 100.48 16.8191 100.1 16.4337C99.725 16.0431 99.4333 15.5665 99.225 15.004C99.0219 14.4415 98.9203 13.7957 98.9203 13.0665C98.9203 12.0978 99.0922 11.2775 99.4359 10.6056C99.7797 9.93372 100.269 9.4233 100.905 9.07434C101.54 8.72538 102.298 8.5509 103.178 8.5509C103.996 8.5509 104.72 8.72538 105.35 9.07434C105.985 9.4233 106.483 9.93372 106.842 10.6056C107.207 11.2775 107.389 12.0978 107.389 13.0665ZM101.35 13.0665C101.35 13.6394 101.412 14.1212 101.537 14.5118C101.662 14.9025 101.858 15.1967 102.123 15.3947C102.389 15.5926 102.735 15.6915 103.162 15.6915C103.584 15.6915 103.925 15.5926 104.186 15.3947C104.452 15.1967 104.644 14.9025 104.764 14.5118C104.889 14.1212 104.952 13.6394 104.952 13.0665C104.952 12.4884 104.889 12.0092 104.764 11.629C104.644 11.2436 104.452 10.9545 104.186 10.7618C103.92 10.5691 103.574 10.4728 103.147 10.4728C102.517 10.4728 102.058 10.6889 101.772 11.1212C101.491 11.5535 101.35 12.2019 101.35 13.0665ZM115.436 17.4493H108.537V16.0431L112.584 10.5353H108.78V8.71497H115.295V10.2618L111.358 15.629H115.436V17.4493ZM120.772 8.5509C121.579 8.5509 122.274 8.70715 122.858 9.01965C123.441 9.32694 123.892 9.77486 124.209 10.3634C124.527 10.9519 124.686 11.6707 124.686 12.5197V13.6759H119.053C119.079 14.3478 119.28 14.8764 119.655 15.2618C120.035 15.642 120.561 15.8322 121.233 15.8322C121.79 15.8322 122.3 15.7749 122.764 15.6603C123.228 15.5457 123.704 15.3738 124.194 15.1447V16.9884C123.761 17.2019 123.308 17.3582 122.834 17.4572C122.366 17.5561 121.795 17.6056 121.123 17.6056C120.248 17.6056 119.472 17.4441 118.795 17.1212C118.123 16.7983 117.595 16.3061 117.209 15.6447C116.829 14.9832 116.639 14.1499 116.639 13.1447C116.639 12.1238 116.811 11.2749 117.155 10.5978C117.504 9.91549 117.988 9.40507 118.608 9.06653C119.228 8.72278 119.949 8.5509 120.772 8.5509ZM120.787 10.2462C120.324 10.2462 119.939 10.3947 119.631 10.6915C119.329 10.9884 119.155 11.4545 119.108 12.09H122.452C122.446 11.7358 122.381 11.4207 122.256 11.1447C122.136 10.8686 121.954 10.6499 121.709 10.4884C121.47 10.3269 121.162 10.2462 120.787 10.2462ZM130.303 15.7072C130.564 15.7072 130.816 15.6811 131.061 15.629C131.311 15.5769 131.558 15.5118 131.803 15.4337V17.2072C131.548 17.3217 131.23 17.4155 130.85 17.4884C130.475 17.5665 130.064 17.6056 129.616 17.6056C129.095 17.6056 128.626 17.5223 128.209 17.3556C127.798 17.1837 127.472 16.8894 127.233 16.4728C126.998 16.0509 126.881 15.465 126.881 14.715V10.504H125.741V9.49622L127.053 8.69934L127.741 6.85559H129.264V8.71497H131.709V10.504H129.264V14.715C129.264 15.0483 129.358 15.2983 129.545 15.465C129.738 15.6264 129.991 15.7072 130.303 15.7072Z" fill="#BAAA1D"/>
</svg>
